<svg xmlns="http://www.w3.org/2000/svg" viewBox="0 0 121.471 219.608"><g data-name="Layer 2"><g data-name="ART"><path d="M17.49 216.514a1.156 1.156 0 00.416.974 2.975 2.975 0 001.795.434h82.069a2.975 2.975 0 001.794-.434 1.156 1.156 0 00.417-.974c0-2.842-5.494-8.599-9.989-8.599H27.479c-4.495 0-9.989 5.757-9.989 8.6z" fill="#cedd3e"/><path d="M100.105 37.235a44.657 44.657 0 00-4.878-17.171C88.72 7.869 77.162 1.686 60.878 1.686c-16.284 0-27.84 6.183-34.349 18.378a44.656 44.656 0 00-4.877 17.171h-.75V90.36h79.952V37.235z" fill="#c5a7d4"/><path d="M17.49 216.514a1.156 1.156 0 00.416.974 2.975 2.975 0 001.795.434h82.069a2.975 2.975 0 001.794-.434 1.156 1.156 0 00.417-.974 4.422 4.422 0 00-.584-1.931H18.074a4.422 4.422 0 00-.584 1.931zM67.655 166.308H53.93a1.374 1.374 0 00-1.372 1.373v38.861h16.47v-38.861a1.374 1.374 0 00-1.372-1.373z" fill="#b5c933"/><path d="M67.655 169.854H53.93a1.374 1.374 0 00-1.372 1.373v35.315h16.47v-35.315a1.374 1.374 0 00-1.372-1.373zM60.735 160.56c26.907 0 38.992-16.611 39.14-53.815h-78.28c.149 37.204 12.234 53.816 39.14 53.816z" fill="#cedd3e"/><path d="M60.735 150.704c-24.401 0-36.612-13.664-38.785-43.959h-.355c.149 37.204 12.234 53.816 39.14 53.816 26.907 0 38.992-16.612 39.14-53.816h-.354c-2.173 30.295-14.384 43.96-38.786 43.96z" fill="#b5c933"/><path fill="#b5c933" d="M20.902 106.059h79.667v4.781H20.902z"/><path d="M107.22 119.727c0 14.792-4.156 27.204-12.019 35.892-6.26 6.918-14.605 11.262-24.8 12.93v4.182c25.648-3.834 40.937-23.583 40.937-53.004v-16.628h-4.118z" fill="#cedd3e"/><path fill="#b5c933" d="M106.534 102.413h5.49v5.49h-5.49z"/><path d="M51.184 168.557c-10.268-1.67-18.651-6.017-24.914-12.938-7.863-8.688-12.02-21.1-12.02-35.892v-16.628h-4.117v16.628c0 29.413 15.332 49.161 41.051 53.004z" fill="#cedd3e"/><path fill="#b5c933" d="M9.447 102.413h5.49v5.49h-5.49z"/><rect x="1.686" y="92.633" width="4.804" height="11.152" rx="1.373" fill="#cedd3e"/><rect x="114.981" y="92.633" width="4.804" height="11.152" rx="1.373" fill="#cedd3e"/><path d="M1.686 101.231c0 .757-.686 2.803 1.373 2.554h2.059c2.058 0 1.372-1.797 1.372-2.554zM114.98 101.231c0 .757-.686 2.554 1.373 2.554h2.06c2.172 0 1.372-1.797 1.372-2.554z" fill="#b5c933"/><path fill="#cedd3e" d="M104.95 94.692h8.658v7.034h-8.658zM7.863 94.692h8.658v7.034H7.863z"/><path fill="#b5c933" d="M104.95 98.658h8.658v3.069h-8.658zM7.863 98.658h8.658v3.069H7.863z"/><rect x="17.893" y="91.046" width="85.684" height="14.326" rx="1.373" fill="#cedd3e"/><path d="M19.266 105.373h82.939c2.745 0 1.372-4.322 1.372-5.079H17.893c0 .757-1.372 5.079 1.373 5.079z" fill="#b5c933"/><path d="M100.854 90.36H20.902V65.5s13.04 10.502 39.976 10.502S100.854 65.5 100.854 65.5z" fill="#af96c1"/><path d="M102.205 107.059H19.266A3.062 3.062 0 0116.207 104V92.419a3.062 3.062 0 013.06-3.059h82.938a3.062 3.062 0 013.059 3.059V104a3.062 3.062 0 01-3.059 3.059zM19.266 91.36a1.06 1.06 0 00-1.059 1.059V104a1.06 1.06 0 001.06 1.059h82.938a1.06 1.06 0 001.059-1.059V92.419a1.06 1.06 0 00-1.059-1.059zM5.118 105.472h-2.06A3.062 3.062 0 010 102.413v-8.407a3.062 3.062 0 013.059-3.059h2.059a3.062 3.062 0 013.058 3.059v8.407a3.062 3.062 0 01-3.058 3.059zm-2.06-12.525A1.06 1.06 0 002 94.006v8.407a1.06 1.06 0 001.059 1.059h2.059a1.06 1.06 0 001.058-1.059v-8.407a1.06 1.06 0 00-1.058-1.059z" fill="#3e4147"/><path d="M17.207 95.006H7.177a1 1 0 010-2h10.03a1 1 0 110 2zM17.207 103.413H7.177a1 1 0 010-2h10.03a1 1 0 110 2zM60.735 162.247c-27.858 0-40.833-17.854-40.833-56.188a1 1 0 012 0c0 37.476 11.976 54.188 38.833 54.188a1 1 0 010 2z" fill="#3e4147"/><path d="M51.872 174.533a1.061 1.061 0 01-.136-.009c-27.106-3.678-43.29-24.164-43.29-54.797v-17.314a1 1 0 012 0v17.314c0 29.54 15.536 49.284 41.559 52.815a1 1 0 01-.133 1.991z" fill="#3e4147"/><path d="M51.828 168.972a1.01 1.01 0 01-.153-.012c-10.44-1.593-19.305-6.133-25.638-13.13-7.916-8.747-12.1-21.231-12.1-36.103v-17.314a1 1 0 012 0v17.314c0 14.367 4.005 26.387 11.583 34.761 6.106 6.746 14.334 10.95 24.457 12.495a1 1 0 01-.15 1.989zM118.412 105.472h-2.058a3.062 3.062 0 01-3.06-3.059v-8.407a3.062 3.062 0 013.06-3.059h2.058a3.062 3.062 0 013.06 3.059v8.407a3.062 3.062 0 01-3.06 3.059zm-2.058-12.525a1.06 1.06 0 00-1.06 1.059v8.407a1.06 1.06 0 001.06 1.059h2.058a1.06 1.06 0 001.06-1.059v-8.407a1.06 1.06 0 00-1.06-1.059z" fill="#3e4147"/><path d="M114.294 95.006h-10.03a1 1 0 010-2h10.03a1 1 0 010 2zM114.294 103.413h-10.03a1 1 0 010-2h10.03a1 1 0 010 2zM60.735 162.247a1 1 0 110-2c26.857 0 38.834-16.712 38.834-54.188a1 1 0 112 0c0 38.334-12.975 56.188-40.834 56.188z" fill="#3e4147"/><path d="M69.712 174.533a1 1 0 01-.132-1.991c25.95-3.521 41.444-23.266 41.444-52.815v-17.314a1 1 0 012 0v17.314c0 30.643-16.14 51.128-43.176 54.797a1.061 1.061 0 01-.136.01z" fill="#3e4147"/><path d="M69.712 168.972a1 1 0 01-.149-1.989c10.07-1.536 18.274-5.74 24.388-12.495 7.577-8.373 11.583-20.393 11.583-34.761v-17.314a1 1 0 112 0v17.314c0 14.872-4.184 27.356-12.1 36.103-6.43 7.106-15.033 11.523-25.57 13.13a1.01 1.01 0 01-.152.012z" fill="#3e4147"/><path d="M69.714 208.229a1 1 0 01-1-1V167.68a1.06 1.06 0 00-1.059-1.059H53.93a1.06 1.06 0 00-1.06 1.059v39.548a1 1 0 01-2 0V167.68a3.062 3.062 0 013.06-3.059h13.725a3.062 3.062 0 013.059 3.059v39.548a1 1 0 01-1 1zM100.854 91.36a1 1 0 01-1-1V38.573C99.852 37.08 99.365 2 60.878 2S21.904 37.08 21.902 38.574V90.36a1 1 0 01-2 0V38.573C19.902 38.187 20.37 0 60.878 0s40.976 38.188 40.976 38.573V90.36a1 1 0 01-1 1z" fill="#3e4147"/><path d="M101.77 219.608H19.7a4.506 4.506 0 01-2.84-.796 2.813 2.813 0 01-1.057-2.298c0-4.54 7.239-10.285 11.675-10.285h66.513c4.436 0 11.675 5.746 11.675 10.285a2.812 2.812 0 01-1.058 2.298 4.505 4.505 0 01-2.84.796zm-74.291-11.38c-4.255 0-9.675 5.617-9.675 8.286a.821.821 0 00.297.727 2.737 2.737 0 001.6.367h82.069a2.736 2.736 0 001.6-.367.823.823 0 00.297-.727c0-2.67-5.42-8.285-9.675-8.285z" fill="#3e4147"/></g></g></svg>
